# xmcd
# 
# Track frame offsets:
#     150
#     17058
#     35380
#     52583
#     68972
#     81112
#     101622
#     117413
#     132962
#     137731
# 
# Disc length: 2122
# 
# Revision: 2
# Processed by: cddbd v1.5.2PL0 Copyright (c) Steve Scherf et al.
# Submitted via: fre:ac v1.1beta1pre5
# 
DISCID=7f08480a
DTITLE=Morcheeba - Blaze Away
DYEAR=2018
DGENRE=Trip Hop, Pop
TTITLE0=Never Undo
TTITLE1=Blaze Away (feat. Roots Manuva)
TTITLE2=Love Dub
TTITLE3=It's Summertime
TTITLE4=Sweet L. A.
TTITLE5=Paris Sur Mer (feat. Benjamin Biolay)
TTITLE6=Find Another Way
TTITLE7=Set Your Sails
TTITLE8=Free Of Debris
TTITLE9=Mezcal Dream (feat. Amanda Zamolo)
EXTD=
EXTT0=
EXTT1=
EXTT2=
EXTT3=
EXTT4=
EXTT5=
EXTT6=
EXTT7=
EXTT8=
EXTT9=
PLAYORDER=
